<?xml version="1.0" encoding="utf-8"?>
<!-- Generator: Adobe Illustrator 15.0.2, SVG Export Plug-In . SVG Version: 6.00 Build 0)  -->
<!DOCTYPE svg PUBLIC "-//W3C//DTD SVG 1.1//EN" "http://www.w3.org/Graphics/SVG/1.1/DTD/svg11.dtd">
<svg version="1.1" id="Layer_1" xmlns="http://www.w3.org/2000/svg" xmlns:xlink="http://www.w3.org/1999/xlink" x="0px" y="0px"
	 width="324px" height="450px" viewBox="0 0 324 450" enable-background="new 0 0 324 450" xml:space="preserve">
<path d="M84.315,118.185v57.722h64.102v-57.722H84.315z M125.161,152.122c-5.094,0-6.685,10.778-10.285,10.778
	c-3.604,0-4.997-18.032-13.914-18.032c-4.737,0-8.77,7.542-11.505,14.616v-36.162h53.823v8.985
	c-1.364-1.015-3.038-1.638-4.867-1.638c-4.525,0-8.186,3.665-8.186,8.187s3.665,8.179,8.186,8.179c1.829,0,3.503-0.623,4.867-1.638
	v25.312C134.712,166.893,131.26,152.122,125.161,152.122z"/>
<path d="M83.833,208.217v66.668H230.09v-66.668H83.833L83.833,208.217z M202.654,245.959c-5.623,0-7.383,12.615-11.361,12.615
	s-5.512-21.1-15.365-21.1c-7.604,0-13.564,18.653-15.886,27.157v3.412c-8.636-6.343-13.097-19.418-20.253-19.418
	c-6.858,0-9.015,12.61-13.867,12.61c-4.856,0-6.736-21.096-18.752-21.096c-8.187,0-14.803,14.496-18.202,23.76v-50.547h135.979
	v10.008c-1.497-0.976-3.275-1.551-5.194-1.551c-5.303,0-9.583,4.28-9.583,9.581c0,5.291,4.28,9.571,9.583,9.571
	c1.919,0,3.697-0.576,5.194-1.553v29.096C213.771,266.021,209.912,245.959,202.654,245.959z"/>
<path d="M166.744,118.185v57.722h64.099v-57.722H166.744z M207.59,152.122c-5.09,0-6.686,10.778-10.285,10.778
	c-3.605,0-5-18.032-13.914-18.032c-4.736,0-8.77,7.542-11.509,14.616v-36.162h53.831v8.985c-1.363-1.015-3.039-1.638-4.867-1.638
	c-4.529,0-8.184,3.665-8.184,8.187s3.658,8.179,8.184,8.179c1.828,0,3.504-0.623,4.867-1.638v25.312
	C217.139,166.893,213.686,152.122,207.59,152.122z"/>
<polygon points="102.654,97.589 99.054,97.589 99.054,85.201 102.654,85.201 102.654,80.449 94.302,80.449 94.302,102.341 
	102.654,102.341 "/>
<polygon points="213.167,97.589 216.768,97.589 216.768,85.201 213.167,85.201 213.167,80.449 221.52,80.449 221.52,102.341 
	213.167,102.341 "/>
<rect x="111.24" y="89.021" width="96.025" height="4.752"/>
<rect x="84.668" y="182.822" width="38.614" height="4.752"/>
<rect x="166.205" y="182.822" width="38.617" height="4.752"/>
<rect x="84.226" y="280.98" width="38.61" height="4.752"/>
<path d="M271.896,85.896v-4.752h-10.961V58.309H57.571v253.779h203.365v-17.783h10.961v-4.75h-10.961v-11.277h10.961v-4.752h-10.961
	v-11.282h10.961v-4.748h-10.961v-11.283h10.961v-4.748h-10.961v-11.278h10.961v-4.755h-10.961v-11.286h10.961v-4.749h-10.961
	v-11.279h10.961v-4.752h-10.961v-11.279h10.961v-4.749h-10.961v-11.279h10.961v-4.752h-10.961v-11.286h10.961v-4.748h-10.961
	v-11.279h10.961v-4.752h-10.961v-11.275h10.961v-4.756h-10.961v-11.286h10.961v-4.749h-10.961V85.896H271.896z M253.041,97.175
	h-9.508v4.749h9.508v11.286h-9.508v4.756h9.508v11.275h-9.508v4.748h9.508v11.279h-9.508v4.749h9.508v11.286h-9.508v4.752h9.508
	v11.279h-9.508v4.749h9.508v11.278h-9.508v4.752h9.508v11.279h-9.508v4.748h9.508v11.286h-9.508v4.756h9.508v11.274h-9.508v4.749
	h9.508v11.281h-9.508v4.748h9.508v11.283h-9.508v4.752h9.508v11.278h-9.508v4.749h9.508v9.881H65.47V66.211h187.571v14.933h-9.508
	v4.752h9.508V97.175z"/>
</svg>
